<svg width="414" height="417" viewBox="0 0 414 417" fill="none" xmlns="http://www.w3.org/2000/svg">
<g clip-path="url(#clip0_61_10502)">
<path d="M215.3 350.35V317.52L174.68 294.06L178.75 329.24L215.3 350.35Z" fill="#263238"/>
<path d="M215.3 350.35L276.23 315.17L280.3 279.99L215.3 317.52V350.35Z" fill="#37474F"/>
<path d="M172.14 287.03C172.14 286.49 172.5 285.94 173.22 285.53L237.08 248.66C238.52 247.83 240.84 247.83 242.28 248.66L281.77 271.46C282.49 271.87 282.85 272.42 282.85 272.96C282.85 273.5 282.85 281.8 282.85 282.34C282.85 282.89 282.49 283.43 281.77 283.85L217.91 320.72C216.48 321.55 214.15 321.55 212.71 320.72L173.22 297.92C172.5 297.51 172.14 296.96 172.14 296.42C172.14 295.88 172.14 287.57 172.14 287.03Z" fill="#2F94FF"/>
<path d="M212.71 311.32L173.22 288.52C171.79 287.69 171.79 286.35 173.22 285.52L237.08 248.65C238.51 247.82 240.84 247.82 242.28 248.65L281.77 271.45C283.2 272.28 283.2 273.62 281.77 274.45L217.91 311.32C216.47 312.15 214.14 312.15 212.71 311.32Z" fill="#0073EC"/>
<path opacity="0.2" d="M270.14 274.13C271.26 274.78 271.2 275.86 270.01 276.55L225.59 302.19C224.39 302.88 222.52 302.91 221.39 302.27C220.27 301.62 220.33 300.54 221.52 299.85L265.93 274.21C267.14 273.51 269.02 273.48 270.14 274.13Z" fill="black"/>
<path opacity="0.2" d="M225.59 302.19C224.39 302.88 222.52 302.91 221.39 302.27C221.31 302.22 221.24 302.17 221.17 302.11C221.28 302.02 221.39 301.94 221.52 301.86L265.93 276.22C267.13 275.53 269 275.49 270.13 276.14C270.21 276.19 270.28 276.24 270.35 276.3C270.25 276.39 270.13 276.47 270 276.55L225.59 302.19Z" fill="black"/>
<path opacity="0.2" d="M237.649 255.36C238.769 256.01 238.709 257.09 237.519 257.78L193.099 283.42C191.899 284.11 190.029 284.14 188.899 283.5C187.779 282.85 187.839 281.77 189.029 281.08L233.439 255.44C234.649 254.75 236.529 254.72 237.649 255.36Z" fill="black"/>
<path opacity="0.2" d="M193.1 283.43C191.9 284.12 190.03 284.15 188.9 283.51C188.82 283.46 188.75 283.41 188.68 283.35C188.79 283.26 188.9 283.18 189.03 283.1L233.44 257.46C234.64 256.77 236.51 256.73 237.64 257.38C237.72 257.43 237.79 257.48 237.86 257.54C237.76 257.63 237.64 257.71 237.51 257.79L193.1 283.43Z" fill="black"/>
<path opacity="0.2" d="M197.02 285.86C195.9 286.51 195.96 287.59 197.15 288.28L213.14 297.5C214.34 298.19 216.21 298.22 217.34 297.58C218.47 296.94 218.4 295.85 217.21 295.16L201.22 285.94C200.02 285.24 198.14 285.21 197.02 285.86Z" fill="black"/>
<path opacity="0.2" d="M213.14 297.5C214.34 298.19 216.21 298.22 217.34 297.58C217.42 297.53 217.49 297.48 217.56 297.42C217.45 297.33 217.34 297.25 217.21 297.17L201.22 287.95C200.02 287.26 198.15 287.22 197.02 287.87C196.94 287.92 196.87 287.97 196.8 288.03C196.91 288.12 197.02 288.2 197.15 288.28L213.14 297.5Z" fill="black"/>
<path opacity="0.2" d="M188.899 290.54C187.779 291.19 187.839 292.27 189.029 292.96L205.019 302.18C206.219 302.87 208.089 302.9 209.219 302.26C210.339 301.61 210.279 300.53 209.089 299.84L193.099 290.62C191.899 289.93 190.019 289.89 188.899 290.54Z" fill="black"/>
<path opacity="0.2" d="M205.029 302.189C206.229 302.879 208.099 302.909 209.229 302.269C209.309 302.219 209.379 302.169 209.449 302.109C209.339 302.019 209.229 301.939 209.099 301.859L193.109 292.639C191.909 291.949 190.039 291.909 188.909 292.559C188.829 292.609 188.759 292.659 188.689 292.719C188.789 292.809 188.909 292.889 189.039 292.969L205.029 302.189Z" fill="black"/>
<path opacity="0.2" d="M245.76 257.71C244.64 258.36 244.7 259.44 245.89 260.13L261.88 269.35C263.08 270.04 264.95 270.07 266.08 269.43C267.2 268.78 267.14 267.7 265.95 267.01L249.96 257.79C248.76 257.1 246.88 257.07 245.76 257.71Z" fill="black"/>
<path opacity="0.2" d="M261.88 269.359C263.08 270.049 264.95 270.079 266.08 269.439C266.16 269.389 266.23 269.339 266.3 269.279C266.19 269.189 266.08 269.109 265.95 269.029L249.96 259.809C248.76 259.119 246.89 259.079 245.76 259.729C245.68 259.779 245.61 259.829 245.54 259.889C245.64 259.979 245.76 260.059 245.89 260.139L261.88 269.359Z" fill="black"/>
<path opacity="0.2" d="M237.649 262.4C236.529 263.05 236.589 264.13 237.779 264.82L253.769 274.04C254.969 274.73 256.839 274.76 257.969 274.12C259.089 273.47 259.029 272.39 257.839 271.7L241.849 262.48C240.649 261.79 238.769 261.75 237.649 262.4Z" fill="black"/>
<path opacity="0.2" d="M253.77 274.04C254.97 274.73 256.84 274.76 257.97 274.12C258.05 274.07 258.12 274.02 258.19 273.96C258.08 273.87 257.97 273.79 257.84 273.71L241.85 264.49C240.65 263.8 238.78 263.76 237.65 264.41C237.57 264.46 237.5 264.51 237.43 264.57C237.53 264.66 237.65 264.74 237.78 264.82L253.77 274.04Z" fill="black"/>
<path d="M211.25 277.95V287.02L215.31 289.37L219.37 287.02V280.14C219.37 278.76 220.34 277.08 221.53 276.39L231.55 270.6L233.45 269.51C234.64 268.82 235.61 269.38 235.61 270.76L235.62 277.64L239.68 275.29V266.22C239.68 266.03 239.67 265.85 239.65 265.68C239.64 265.53 239.62 265.4 239.59 265.27C239.56 265.11 239.52 264.95 239.47 264.81C239.43 264.69 239.38 264.57 239.33 264.46C239.27 264.34 239.21 264.23 239.14 264.13C239.07 264.02 239 263.93 238.92 263.84C238.84 263.75 238.76 263.67 238.67 263.6C238.67 263.6 238.67 263.59 238.66 263.59C238.57 263.52 238.48 263.46 238.38 263.41C238.34 263.38 238.3 263.36 238.25 263.34C237.39 262.85 235.03 261.48 234.34 261.08C233.56 260.62 232.48 260.69 231.29 261.38L215.58 270.45C213.18 271.83 211.25 275.19 211.25 277.95Z" fill="#455A64"/>
<path d="M231.55 270.599V270.609L231.56 275.289L235.62 277.639L235.61 270.759C235.61 269.379 234.64 268.819 233.45 269.509L231.55 270.599Z" fill="#263238"/>
<path d="M215.31 280.289V289.369L219.37 287.019V280.139C219.37 278.759 220.34 277.079 221.53 276.389L231.55 270.609V270.599L233.45 269.509C234.64 268.819 235.61 269.379 235.61 270.759L235.62 277.639L239.68 275.299V266.219C239.68 266.029 239.67 265.849 239.65 265.679C239.64 265.529 239.62 265.399 239.59 265.269C239.56 265.109 239.52 264.949 239.47 264.809C239.43 264.689 239.38 264.569 239.33 264.459C239.27 264.339 239.21 264.229 239.14 264.129C239.07 264.019 239 263.929 238.92 263.839C238.84 263.749 238.76 263.669 238.67 263.599C238.67 263.599 238.67 263.589 238.66 263.589C238.57 263.519 238.48 263.459 238.38 263.409C238.34 263.379 238.3 263.359 238.25 263.339C237.49 262.979 236.47 263.069 235.35 263.719L219.64 272.789C217.25 274.179 215.31 277.529 215.31 280.289Z" fill="#37474F"/>
<path d="M235.61 319.86L234.11 318.99L230.05 321.34L231.55 322.2L235.61 319.86Z" fill="#455A64"/>
<path d="M231.55 322.2L230.05 341.83V321.34L231.55 322.2Z" fill="#263238"/>
<path d="M235.609 319.86L234.109 339.49L234.609 339.26L235.609 319.86Z" fill="#37474F"/>
<path d="M201.62 323.68L203.12 322.82L207.18 325.16L205.68 326.03L201.62 323.68Z" fill="#455A64"/>
<path d="M201.62 323.681L203.12 343.311L202.62 343.081L201.62 323.681Z" fill="black"/>
<path d="M185.37 314.3L186.87 313.43L190.93 315.78L189.43 316.65L185.37 314.3Z" fill="#455A64"/>
<path d="M207.18 345.659L205.68 326.029L207.18 325.159V345.659Z" fill="#37474F"/>
<path d="M190.93 315.779V336.279L189.43 316.649L190.93 315.779Z" fill="#37474F"/>
<path d="M185.37 314.3L186.87 333.93L186.37 333.7L185.37 314.3Z" fill="black"/>
<path d="M264.049 303.44L262.539 302.58L258.479 304.92L259.989 305.79L264.049 303.44Z" fill="#455A64"/>
<path d="M259.989 305.79L258.479 325.42V304.92L259.989 305.79Z" fill="#263238"/>
<path d="M264.05 303.44L262.55 323.07L263.04 322.84L264.05 303.44Z" fill="#37474F"/>
<path d="M227.859 316.52L227.869 311.83L235.999 307.14L237.349 307.92L237.339 312.61L229.219 317.31L227.859 316.52Z" fill="#37474F"/>
<path d="M237.35 307.92L237.34 312.61L229.22 317.31L229.23 312.61L237.35 307.92Z" fill="#455A64"/>
<path d="M229.229 312.61L227.869 311.83L227.859 316.52L229.219 317.31L229.229 312.61Z" fill="#263238"/>
<path d="M256.52 299.999L256.53 295.299L264.66 290.609L266.01 291.399L266 296.089L257.87 300.779L256.52 299.999Z" fill="#37474F"/>
<path d="M266.009 291.399L265.999 296.089L257.869 300.779L257.889 296.089L266.009 291.399Z" fill="#455A64"/>
<path d="M257.89 296.09L256.53 295.3L256.52 300L257.87 300.78L257.89 296.09Z" fill="#263238"/>
<path d="M209.78 369.66C209.23 369.97 208.2 369.96 207.87 370.34V371.69L214.15 370.77L216.52 372.16L215.62 374.05L209.28 373.63V374.98C209.41 375.07 209.55 375.16 209.71 375.25C212.36 376.81 216.7 376.82 219.39 375.29C220.75 374.52 221.43 373.5 221.43 372.48V371.13L221.06 371.19C221.05 371.17 221.03 371.14 221.02 371.12L244.78 357.4C247.19 357.91 249.99 357.61 251.93 356.51C252.94 355.94 253.57 355.23 253.84 354.48V353.13L247.56 355.4L245.19 354.01L246.09 352.12L252.43 351.19V349.84C252.43 349.84 245.02 349.35 242.32 350.88C241.53 351.33 240.97 351.86 240.64 352.43L240.28 352.3V353.64C240.27 354.12 240.41 354.6 240.69 355.05L216.93 368.77C214.53 368.26 211.73 368.56 209.78 369.66Z" fill="#37474F"/>
<path d="M244.77 357.401L244.78 356.051L221.01 369.771V371.121L244.77 357.401Z" fill="#37474F"/>
<path d="M240.7 353.7L216.94 367.42C214.53 366.91 211.73 367.21 209.79 368.31C208.78 368.88 208.15 369.59 207.88 370.34L214.16 369.42L216.53 370.81L215.63 372.7L209.29 373.63C209.42 373.72 209.56 373.81 209.72 373.9C212.37 375.46 216.71 375.47 219.4 373.94C221.37 372.82 221.91 371.18 221.02 369.77L244.78 356.05C247.19 356.56 249.99 356.26 251.93 355.16C252.94 354.59 253.57 353.88 253.84 353.13L247.56 354.05L245.19 352.66L246.09 350.77L252.43 349.84C252.3 349.75 252.16 349.66 252 349.57C249.35 348.01 245.01 348 242.32 349.53C240.35 350.65 239.81 352.29 240.7 353.7Z" fill="#455A64"/>
<path d="M245.69 352.951L245.18 352.651L246.08 350.771L252.42 349.841V351.191L246.08 352.121L245.69 352.951Z" fill="#263238"/>
<path d="M216.02 371.871L216.53 370.811L214.15 369.421L207.87 370.341V371.691L214.15 370.771L216.02 371.871Z" fill="#263238"/>
<path d="M224.32 389.63L229.29 398.23L246.05 388.56C246.74 388.22 247.17 387.41 247.17 386.24C247.17 384 245.6 381.27 243.66 380.15C242.69 379.59 241.81 379.54 241.17 379.91L224.32 389.63Z" fill="#0073EC"/>
<path d="M223.321 391.41C223.241 392.72 221.391 393 221.391 393L224.901 399.09C224.901 399.09 226.071 397.65 227.241 398.22C228.971 398.97 230.311 398.04 230.311 395.97C230.311 393.73 228.741 391 226.801 389.88C225.011 388.84 223.541 389.54 223.321 391.41Z" fill="#025BB8"/>
<path opacity="0.05" d="M222.231 392.74C221.791 392.94 221.391 393 221.391 393L224.901 399.09C224.901 399.09 225.161 398.78 225.551 398.5C225.461 396.37 224.031 393.88 222.231 392.74Z" fill="black"/>
<path d="M217.74 393.43L218.03 393.94C217.93 394.26 217.88 394.62 217.88 395.03C217.88 397.27 219.45 400 221.39 401.12C221.74 401.32 222.09 401.46 222.41 401.53L222.7 402.04L223.87 401.36C224.51 400.99 224.9 400.21 224.9 399.08C224.9 396.84 223.33 394.11 221.39 392.99C220.42 392.43 219.54 392.38 218.9 392.74L217.74 393.43Z" fill="#0073EC"/>
<path d="M223.73 399.76C223.73 397.52 222.16 394.79 220.22 393.67C218.28 392.55 216.71 393.46 216.71 395.7C216.71 397.94 218.28 400.67 220.22 401.79C222.16 402.91 223.73 402 223.73 399.76Z" fill="#035FBF"/>
<path opacity="0.15" d="M218.85 400.68C219.12 400.97 219.42 401.23 219.72 401.46L220.54 399.11L219.55 398.38L218.85 400.68Z" fill="black"/>
<path opacity="0.2" d="M244.301 383.83C244.571 384.29 244.411 384.89 243.951 385.15L231.981 392.06C231.521 392.33 230.921 392.17 230.661 391.71C230.391 391.25 230.551 390.65 231.011 390.39L242.981 383.48C243.441 383.2 244.041 383.36 244.301 383.83Z" fill="black"/>
<path opacity="0.2" d="M242.14 381.25C242.52 381.57 242.5 382.01 242.1 382.24L229.91 389.28C229.51 389.51 228.88 389.44 228.5 389.13C228.12 388.81 228.14 388.37 228.54 388.14L240.73 381.1C241.14 380.87 241.77 380.94 242.14 381.25Z" fill="black"/>
<path opacity="0.2" d="M245.451 386.98C245.361 386.49 244.971 386.29 244.571 386.52L232.381 393.56C231.981 393.79 231.721 394.37 231.811 394.86C231.901 395.35 232.291 395.55 232.691 395.32L244.881 388.28C245.281 388.05 245.541 387.47 245.451 386.98Z" fill="black"/>
<path d="M189.4 413.96V416.3L195.26 414.4C195.26 414.4 196.43 412.25 197.6 411.57L219.86 398.72L220.55 396.77L219.86 396.37L197.6 409.22C196.43 409.9 195.26 409.1 195.26 409.1L189.4 413.96Z" fill="#455A64"/>
<path d="M190.091 414.36V416.7L195.951 414.8C195.951 414.8 197.121 412.65 198.291 411.97L220.551 399.12V396.78L198.291 409.63C197.121 410.31 195.951 409.51 195.951 409.51L190.091 414.36Z" fill="#37474F"/>
<path d="M190.09 416.7L189.4 416.3V413.96L190.09 414.36V416.7Z" fill="#263238"/>
<path d="M189.4 413.961L190.09 414.361L195.95 409.501L195.26 409.101L189.4 413.961Z" fill="#455A64"/>
<path d="M272.82 112.851H221.28C220.87 112.851 220.53 112.511 220.53 112.101C220.53 111.691 220.87 111.351 221.28 111.351H272.82C273.23 111.351 273.57 111.691 273.57 112.101C273.57 112.511 273.24 112.851 272.82 112.851Z" fill="#37474F"/>
<path d="M154.43 146.18C149.47 136.74 141.49 116.31 141.49 116.31L141.66 88.9004C141.46 88.9204 145.35 90.0804 146.55 90.3604C154.27 93.2104 156.4 94.5704 159.71 101.38C162.34 106.79 171.2 131.46 174.34 139.8L193.19 126.4C197.94 122.4 199.05 116.69 201.95 113.14C204.85 109.59 208.13 108.62 211.42 105.6C214.71 102.59 215.94 100.36 217.2 102.76C218.46 105.16 214.88 109.6 214.26 110.67C213.82 111.43 212.73 111.99 212.49 112.85C212.08 114.3 214.24 114.08 215.18 113.88C219.78 112.88 223.95 109 226.8 105.45C227.91 104.07 231.96 98.6604 232.99 103.02C233.83 106.57 230.91 108.84 230.7 112.11C230.57 114.12 230.14 115.53 229.3 117.31C228.6 118.79 228.93 120.51 228.44 122.06C226.93 126.88 223.09 128.53 218.65 130.03C214.32 131.49 209.39 132.62 205.71 135.46C201.23 138.91 190.39 150.57 183.8 157.58C175.43 166.49 169.91 168.61 165.02 163.33C160.13 158.06 156.27 149.68 154.43 146.18Z" fill="#FFA8A7"/>
<path d="M232.99 103.01C231.96 98.65 227.91 104.05 226.8 105.44C223.96 108.99 219.78 112.87 215.18 113.87C214.24 114.07 212.08 114.3 212.49 112.84C212.73 111.99 213.83 111.42 214.26 110.66C214.87 109.59 218.46 105.15 217.2 102.75C215.94 100.35 214.71 102.58 211.42 105.59C208.13 108.6 204.85 109.58 201.95 113.13C199.05 116.68 197.94 122.39 193.19 126.39L191.89 127.31C192.67 132.57 195.91 137.73 200.56 140.11C202.62 138.1 204.42 136.44 205.69 135.45C209.38 132.61 214.3 131.48 218.63 130.02C223.08 128.52 226.91 126.86 228.42 122.05C228.91 120.5 228.58 118.78 229.28 117.3C230.11 115.52 230.55 114.11 230.68 112.1C230.92 108.84 233.83 106.56 232.99 103.01Z" fill="#455A64"/>
<path d="M194.17 125.511C194.08 127.251 195.05 131.881 197.26 134.361C199.47 136.841 202.59 138.081 202.59 138.081L203.38 137.461C203.38 137.461 204.15 137.541 202.1 139.591C200.05 141.641 199.58 142.401 198.45 142.241C197.31 142.071 194.09 140.191 191.9 136.851C189.72 133.511 189.13 129.851 189.18 128.881C189.23 127.911 190.64 127.161 191.9 126.241C193.16 125.321 194.49 123.791 195.2 124.391L194.17 125.511Z" fill="#0268D3"/>
<path d="M144.05 89.3506C149.1 90.5206 153.08 92.4306 155.45 94.4706C159.16 97.6706 160.84 102.651 163.36 109.491C165.88 116.331 172.37 132.881 172.37 132.881C172.37 132.881 161.04 135.851 154.37 146.991L137.21 111.281L144.05 89.3506Z" fill="#E0E0E0"/>
<path d="M174.34 139.801C170.06 142.011 167.48 145.561 166.65 147.521C166.65 147.521 166.61 142.011 173.62 137.891L174.34 139.801Z" fill="#F28F8F"/>
<path d="M86.0104 92.2206C86.0104 92.2206 80.1404 97.3805 78.6404 102.961C77.9004 105.701 77.2204 107.991 79.5404 123.211C81.7604 137.741 83.3304 137.731 84.4504 148.811L82.8304 176.541C91.5204 186.721 132.11 191.901 152.41 178.191C152.41 178.191 153.29 136.091 151.85 118.751C150.88 106.971 145.9 94.8705 144.04 89.3405C138.52 88.3805 133.22 87.7405 133.22 87.7405L112.92 86.5605L86.0104 92.2206Z" fill="#FAFAFA"/>
<path d="M142.78 50.6606C145.45 44.5406 142.84 36.4206 139.65 32.6106C135.04 27.1006 127.87 24.7206 117.05 25.3906C108.83 25.9006 100.74 29.3206 99.2004 37.7506C92.5904 39.7206 93.3404 50.5806 94.9904 55.3606C98.3304 65.0806 104.89 73.5306 105 78.5006L142.78 50.6606Z" fill="#37474F"/>
<path d="M142.781 73.5208C141.481 78.2108 138.761 81.6508 134.431 82.3308C131.841 82.7408 127.581 82.3708 127.581 82.3708L127.751 88.3408C136.701 99.7308 115.691 102.041 105.291 89.5608L104.671 69.3908C104.671 69.3908 102.011 72.4008 97.6406 69.5508C94.6406 67.5808 92.4906 62.5208 94.6706 57.8608C96.8406 53.2808 101.181 55.1808 102.521 56.5608C103.851 57.9508 105.411 60.5708 106.521 60.2008C108.211 59.6408 108.781 58.5708 109.211 57.4508C109.991 55.4908 110.541 52.9508 110.631 48.5808C111.841 47.9708 113.001 47.0808 114.021 45.9608C115.881 43.8908 116.891 41.4308 116.971 39.1708C126.341 36.2308 137.131 37.6208 141.021 40.6308C143.261 44.5808 143.341 53.7608 143.721 59.0508C144.121 64.8108 143.871 69.6008 142.781 73.5208Z" fill="#FFA8A7"/>
<path d="M127.571 82.3607C122.771 82.0907 113.121 79.8507 110.551 77.1707C107.981 74.4907 106.891 69.0107 106.891 69.0107C106.891 69.0107 107.281 75.9307 109.261 78.9807C111.251 82.0307 116.271 83.3707 119.311 84.1207C122.361 84.8807 127.651 85.3907 127.651 85.3907L127.571 82.3607Z" fill="#F28F8F"/>
<path d="M124.541 56.0003C124.541 57.1103 123.681 58.0203 122.611 58.0203C121.541 58.0203 120.671 57.1203 120.661 56.0103C120.661 54.9003 121.521 53.9903 122.591 53.9903C123.661 53.9803 124.531 54.8803 124.541 56.0003Z" fill="#263238"/>
<path d="M121.821 49.7907L117.891 52.4407C117.171 51.3107 117.471 49.8007 118.561 49.0607C119.651 48.3407 121.111 48.6607 121.821 49.7907Z" fill="#263238"/>
<path d="M140.891 51.0405L136.581 48.9805C137.111 47.7605 138.501 47.2305 139.691 47.8005C140.881 48.3705 141.421 49.8205 140.891 51.0405Z" fill="#263238"/>
<path d="M139.441 55.3C139.441 56.41 138.581 57.32 137.511 57.32C136.441 57.32 135.571 56.42 135.561 55.31C135.561 54.2 136.421 53.29 137.491 53.29C138.561 53.29 139.441 54.19 139.441 55.3Z" fill="#263238"/>
<path d="M128.991 51.8203L130.401 65.7703L137.881 63.5103L128.991 51.8203Z" fill="#F28F8F"/>
<path d="M124.531 69.0205L132.561 70.8005C132.121 73.0905 129.961 74.5505 127.741 74.0605C125.521 73.5605 124.081 71.3105 124.531 69.0205Z" fill="#B16668"/>
<path d="M127.741 74.0507C127.911 74.0907 128.081 74.0907 128.241 74.1107C128.191 72.0807 126.531 70.4707 124.511 70.4707C124.751 72.2007 126.001 73.6707 127.741 74.0507Z" fill="#F28F8F"/>
<path d="M93.4403 49.7907C93.6803 52.3007 94.2703 54.6907 95.1803 56.9307C95.7203 56.2607 96.3203 55.6007 96.9503 54.9607C100.32 51.5207 104.61 48.6407 109.38 46.4007H109.4C120.09 41.4007 133.18 39.7207 143.66 42.6307C143.26 40.5207 142.6 38.5007 141.71 36.6307C137.3 27.1507 127.29 21.0407 116.3 22.0907C102.32 23.4207 92.1003 35.8307 93.4403 49.7907Z" fill="#0268D3"/>
<path d="M104.4 24.5403C105.67 23.9203 112.07 22.0103 112.58 21.8603C115.9 20.8503 121.22 20.9203 126.69 25.4203C133.78 31.2503 135.25 39.2503 135.25 39.2503L128.45 41.3803L126.28 41.5903C125.48 36.6003 118.89 25.8203 109.63 25.4203C109.2 25.4003 108.77 25.4003 108.32 25.4403C107.16 25.4903 105.96 25.7303 104.74 26.1703C104.74 26.1703 102.26 27.9103 101.15 29.0503C101.16 29.0303 101.34 25.9903 104.4 24.5403Z" fill="#0073EC"/>
<path d="M126.29 41.5805C125.34 35.7705 116.48 22.0005 104.76 26.1405C104.76 26.1405 102.27 27.8905 101.15 29.0205C101.15 29.0205 101.35 25.9905 104.4 24.5305C107.45 23.0705 113.57 22.3505 119.9 27.5505C126.98 33.3705 128.45 41.3705 128.45 41.3705L126.29 41.5805Z" fill="#1185FF"/>
<path d="M109.2 44.4001C109.7 43.9701 112.06 38.8601 120.5 34.3601C125.71 31.5801 136.39 31.4401 141.18 31.5201C149.57 31.6601 151.57 33.4401 151.67 34.6801C151.69 34.9701 151.81 36.3301 151.85 36.6401C151.89 36.9501 151.81 37.2201 151.67 37.4301C150.41 39.3301 143.64 42.6301 143.64 42.6301C133.16 39.7201 120.07 41.4101 109.38 46.4001L109.2 44.4001Z" fill="#0073EC"/>
<path d="M109.391 46.4001C120.081 41.4001 133.171 39.7201 143.651 42.6301C143.651 42.6301 150.431 39.3401 151.681 37.4301C152.351 36.3801 151.751 33.6901 141.371 33.5201C136.581 33.4401 125.901 33.5801 120.691 36.3601C112.251 40.8601 109.891 45.9601 109.391 46.4001Z" fill="#1185FF"/>
<path d="M141.68 352.84C142.01 347.53 144.85 294.04 144.85 294.04L118.88 312.38C123.42 342.96 124.41 352.17 124.61 357.28C124.57 357.4 124.47 357.83 124.49 358.59C124.63 364.65 131.88 367.82 137.57 371.77C139.82 373.33 146.35 377.95 152.93 380.97C157.04 382.86 165.33 382.92 166.31 380.41C159.39 375.55 151.38 370.25 145.84 364.66C143.19 362 141.29 359.21 141.68 352.84Z" fill="#FFA8A7"/>
<path d="M178.069 386.76C178.419 386.75 179.019 390.42 177.149 392C174.989 393.83 168.599 396.88 160.059 395.95C151.519 395.02 146.869 392.59 143.409 389.92C139.949 387.26 135.099 383.5 131.239 382.75C127.649 382.05 123.729 380.57 122.569 379.53C121.409 378.49 121.479 373.82 121.479 373.82L178.069 386.76Z" fill="#263238"/>
<path d="M151.47 366.67C150.91 366.15 150.37 365.63 149.84 365.09C147.97 363.19 146.76 360.83 145.77 358.38C145.28 357.18 144.72 355.95 144.49 354.68C144.23 353.21 144.05 351.72 143.8 350.25C143.71 349.7 143.76 348.49 143.12 348.25C142.49 348.02 141.37 348.44 140.82 348.68C139.09 349.42 137.28 349.99 135.5 350.62C134.54 350.96 132.45 351.5 132.15 352.61C131.83 353.77 132.35 355.1 132.11 356.3C132.02 356.77 131.82 357.27 131.26 357.24C130.31 357.2 130.01 355.8 129.75 355.1C129.19 353.62 128.74 352.93 127.16 352.5C126.33 352.27 124.72 352.16 124.16 351.43L123.95 349.4C123.95 349.4 122.51 349.62 121.84 351.03C121.16 352.47 121.61 354.45 121.85 355.98C122.09 357.53 122.3 358.96 122.23 360.56C122.17 361.88 121.84 363.17 121.6 364.46C121.17 366.72 120.97 368.96 120.97 371.27C120.97 372.33 121.01 373.38 121.21 374.43C121.4 375.42 121.78 375.9 122.55 376.59C123.64 377.56 124.82 378.22 126.2 378.77C128.03 379.5 129.92 380.06 131.78 380.7C135.61 382.02 140.07 384.8 143.99 387.78C148.05 390.86 156.53 393.89 162.08 393.88C170.56 393.88 176.48 391.08 178.12 388.16C178.27 386.19 178.39 384.14 177.48 382.74C174.51 378.16 167.91 376.69 162.62 374.16C160.31 373.06 158.09 371.64 155.96 370.24C154.39 369.21 152.88 367.98 151.47 366.67Z" fill="#37474F"/>
<path d="M165.87 375.561C155.49 378.511 151.89 385.521 150.34 391.181C154.24 392.761 158.71 393.881 162.09 393.881C170.57 393.881 176.49 391.081 178.13 388.161C178.28 386.191 178.4 384.141 177.49 382.741C175.11 379.071 170.38 377.391 165.87 375.561Z" fill="#455A64"/>
<path d="M131.789 380.7C131.929 380.75 132.089 380.82 132.229 380.87C131.809 372.83 128.519 367.57 121.289 366.51C121.079 368.08 120.979 369.66 120.979 371.27C120.979 372.33 121.019 373.38 121.219 374.43C121.409 375.42 121.789 375.9 122.559 376.59C123.649 377.56 124.829 378.22 126.209 378.77C128.049 379.5 129.929 380.06 131.789 380.7Z" fill="#455A64"/>
<path d="M98.8397 309.8L71.7497 303.94C71.0397 320.71 71.4697 343.4 70.8897 359.15C70.7797 362.11 69.2497 382.14 70.0997 388.29C71.3797 397.53 83.7697 396.93 84.7997 391.49C85.8297 386.05 86.7197 362.8 86.9197 360.39C87.4997 350.3 93.2497 333.35 97.2897 315.4C97.4897 314.52 98.6497 310.66 98.8397 309.8Z" fill="#FFA8A7"/>
<path d="M89.18 395.54C89.07 400.93 88.29 404.53 86.27 407.76C84.25 410.99 80.22 412.13 76.04 411.36C71.87 410.59 66.46 408.32 65.06 403.73C63.66 399.14 63.76 395.95 64.47 390.93L89.18 395.54Z" fill="#263238"/>
<path d="M71.1201 349.83C69.4201 350.01 69.0901 364.64 68.4401 371.9C67.7401 379.68 65.2701 382.99 64.6201 389.37C63.8801 396.67 64.4601 399.89 67.5401 404.17C70.6201 408.45 81.0301 412.38 85.7701 405.91C89.6301 400.64 89.5401 394.95 88.8401 387.72C88.1101 380.24 88.0801 368.27 88.1701 362.57C88.2501 357.12 89.9001 351.38 88.4001 350.83C88.0701 352.29 87.8801 353.54 87.7101 354.32C87.3301 356.05 86.9301 358.12 86.4101 357.74C86.4101 357.74 86.5501 356.21 86.5701 355.5C86.5901 354.88 86.7501 354.34 86.2701 353.89C85.7901 353.44 83.7601 353.16 83.0701 353.07C81.3801 352.84 79.6801 352.64 77.9801 352.57C77.1301 352.53 76.2801 352.53 75.4301 352.57C74.7401 352.6 73.9301 352.68 73.2901 352.92C72.8901 353.07 72.5301 353.33 72.4001 353.69C72.3001 353.96 72.3401 354.24 72.3501 354.52C72.3701 355.02 72.3201 355.53 72.2101 356.02C72.1601 356.24 72.0001 356.5 71.7601 356.46C71.5601 356.43 71.3601 356.28 71.2901 355.79C71.1701 354.92 71.1301 353.85 71.1201 352.83C71.1201 352.36 71.1801 351.71 71.1601 351.24C71.1201 350.76 71.1001 350.3 71.1201 349.83Z" fill="#37474F"/>
<path d="M64.3398 393.6C64.2498 398.12 64.6898 401.19 67.0998 404.54C70.1798 408.82 81.4098 412.73 86.1498 406.26C88.5098 403.04 89.0098 399.32 89.1798 395.54C85.9398 390.8 68.8998 389.3 64.3398 393.6Z" fill="#455A64"/>
<path d="M153.52 130.689C153.52 130.689 132.95 135.319 102.11 133.199C102.11 153.579 104.26 176.949 94.5097 176.819L82.8497 176.539C82.2097 207.059 77.0397 270.699 77.0397 270.699C76.5797 274.449 71.1497 290.389 70.9497 303.949C70.6397 325.219 70.1797 341.339 70.1797 341.339C70.1797 341.339 82.0597 346.039 90.7897 342.789C90.7897 342.789 102.15 297.569 105.33 283.459C109.12 266.649 116.96 235.589 116.96 235.589L117.9 279.819C117.9 279.819 116 293.519 117.54 306.679C118.59 315.639 122.19 340.589 122.19 340.589C122.19 340.589 133.13 342.789 142.61 339.989C142.61 339.989 148.32 286.409 148.79 278.169C149.3 269.209 152.14 186.499 152.4 178.789C152.41 178.789 152.41 178.789 152.42 178.789C155 139.919 153.52 130.689 153.52 130.689Z" fill="#455A64"/>
<path d="M102.099 133.199C100.669 114.729 100.709 99.5595 93.7793 90.5895L102.619 88.7295C102.619 88.7295 110.269 105.679 110.269 133.819L102.099 133.199Z" fill="#455A64"/>
<path d="M145.389 132.71C145.389 112.61 140.959 95.3598 133.939 87.8398L144.049 89.3498C144.049 89.3498 153.509 104.57 153.509 132.71H145.389Z" fill="#455A64"/>
<path d="M113.22 137.41C113.22 137.41 129.47 138.45 143.12 135.82L143.74 149.65L130.12 158.19L113.23 152.67V137.41H113.22Z" fill="#37474F"/>
<path d="M87.0504 177.561C94.8704 180.811 113.89 182.761 129.15 182.601C144.41 182.441 152.42 178.771 152.42 178.771L152.17 188.071C152.17 188.071 125.08 199.421 85.9004 186.081L87.0504 177.561Z" fill="#1989FF"/>
<path d="M116.96 235.59L124.21 206.25C124.21 206.25 135.09 206.39 142.2 199.74C142.2 199.74 141.24 207.23 128.27 211.23L121.55 234.54L117.75 278.99L116.96 235.59Z" fill="#37474F"/>
<path d="M105.38 87.4805L105.44 89.4405C105.44 89.4405 107.36 94.2805 108.83 103.11C110.93 115.78 111.29 132.39 111.29 151.15C111.29 169.91 111.29 202.73 111.29 202.73C111.29 202.73 87.8395 204.23 80.3895 186.33L83.4195 148.81C83.4195 148.81 79.1195 129.42 77.9495 118.32C76.7795 107.22 74.6895 99.4605 85.0695 90.9905L105.38 87.4805Z" fill="#0073EC"/>
<path d="M81.25 138.33C82.42 144.27 83.43 148.81 83.43 148.81L83.32 150.28C90.57 155.02 101.38 158.06 111.3 157.6C111.3 155.33 111.3 153.15 111.3 151.15C111.3 149.79 111.3 148.45 111.29 147.12C100.37 147.62 88.39 143.9 81.25 138.33Z" fill="#F0F0F0"/>
<path d="M111.3 178.42C111.3 174.99 111.3 171.45 111.3 167.94C101.02 168.41 89.8 165.14 82.56 160.1L81.79 170.03C88.99 175.38 100.65 178.91 111.3 178.42Z" fill="#F0F0F0"/>
<path d="M128.12 87.2501C128.12 87.2501 138.18 92.5601 141.33 104.99C144.48 117.42 144.96 127.21 145.39 143.17C145.83 159.12 145.18 203.62 145.18 203.62C145.18 203.62 152.22 200.55 153.73 197.22C153.73 197.22 155.7 140.71 153.52 120.68C151.33 100.66 144.06 89.3601 144.06 89.3601C144.06 89.3601 138.87 87.2301 128.12 87.2501Z" fill="#0073EC"/>
<path d="M145.56 155.59C148.58 155.51 151.63 155.14 154.61 154.52C154.62 151.02 154.61 147.49 154.57 144.05C151.57 144.68 148.49 145.04 145.44 145.11C145.5 148.12 145.54 151.72 145.56 155.59Z" fill="#F0F0F0"/>
<path d="M154.351 175.39C154.421 172.17 154.481 168.61 154.531 164.87C151.591 165.48 148.571 165.85 145.591 165.92C145.591 169.47 145.581 173.02 145.561 176.4C148.491 176.33 151.461 175.98 154.351 175.39Z" fill="#F0F0F0"/>
<path d="M90.2805 91.1903C84.2705 91.1803 77.3005 90.9403 73.3505 99.5903C72.0705 102.41 68.1105 118.99 63.7205 134.28C55.8605 124.28 49.1505 114.03 48.2805 112.21C45.9505 107.34 45.9205 104.05 43.5405 99.0203C41.1705 94.0003 40.6505 91.3103 40.3905 90.3803C39.8305 88.3603 38.0505 89.8503 37.4205 90.7503C36.3705 92.2603 35.7605 94.0803 35.7305 95.9303C35.7105 97.2303 35.7105 98.5603 35.6305 99.8403C35.5505 100.99 35.1005 101.07 34.0605 100.48C31.9205 99.2903 30.1105 97.2103 28.3205 95.5503C26.4005 93.7603 24.2005 92.3303 22.3205 90.5303C20.5705 88.8503 19.4905 86.9403 17.9605 85.1403C16.8105 83.7903 14.8505 82.0403 13.3405 83.9703C12.4305 85.1303 13.2705 86.5003 13.6705 87.6603C14.1305 88.9903 13.6805 89.9803 13.4205 91.2803C13.1305 92.6803 12.8705 94.3103 13.5505 95.6403C14.2605 97.0403 14.9105 97.9203 14.7205 99.5803C14.5605 100.95 14.0705 102.25 14.2705 103.66C14.4405 104.83 15.3005 105.69 15.8505 106.7C16.9105 108.65 18.1305 109.94 19.6205 111.53C21.4305 113.44 23.1505 114.73 25.2505 116.36C30.0605 120.1 31.8505 121.27 33.4605 122.52C35.8705 124.38 38.3605 129.15 39.7705 131.78C42.5005 136.89 48.3505 151.27 56.2505 161.56C60.8005 167.49 66.9905 169.38 72.4505 162.68C75.3105 159.16 77.7405 153.58 79.3205 149.36C85.3905 133.19 89.7805 119.86 89.7805 119.86C89.7805 119.86 94.6905 104.79 90.2805 91.1903Z" fill="#FFA8A7"/>
<path d="M51.2101 116.93C49.6501 114.57 48.6101 112.86 48.3001 112.22C45.9701 107.35 45.9401 104.06 43.5601 99.03C41.1901 94.01 40.6601 91.32 40.4101 90.39C39.8501 88.37 38.0701 89.86 37.4401 90.76C36.3901 92.27 35.7801 94.09 35.7501 95.94C35.7301 97.24 35.7301 98.57 35.6501 99.85C35.5701 101 35.1201 101.08 34.0801 100.49C31.9401 99.3 30.1301 97.22 28.3401 95.56C26.4201 93.77 24.2201 92.34 22.3401 90.54C20.5901 88.86 19.5101 86.95 17.9801 85.15C16.8301 83.8 14.8701 82.05 13.3601 83.98C12.4501 85.14 13.2901 86.51 13.6901 87.67C14.1501 89 13.7001 89.99 13.4401 91.29C13.1501 92.69 12.8901 94.32 13.5701 95.65C14.2801 97.05 14.9301 97.93 14.7401 99.59C14.5801 100.96 14.0901 102.26 14.2901 103.67C14.4601 104.84 15.3201 105.7 15.8701 106.71C16.9301 108.66 18.1501 109.95 19.6401 111.54C21.4501 113.45 23.1701 114.74 25.2701 116.37C30.0801 120.11 31.8701 121.28 33.4801 122.53C35.7701 124.3 38.1301 128.69 39.5701 131.38C44.3401 128.26 48.6701 122.38 51.2101 116.93Z" fill="#455A64"/>
<path d="M49.6805 114.57L48.9305 113.45C48.9305 113.45 49.2305 112.14 50.4505 114.01C51.6605 115.88 53.1305 118.26 53.2805 118.97C53.4305 119.68 52.2205 125.8 48.4205 128.84C44.6305 131.88 41.2705 132.79 40.2205 132.66C39.1605 132.53 38.8605 131.57 38.2505 130.3C37.6405 129.04 36.1305 127.47 36.5805 126.25L37.4405 127.46C37.4405 127.46 42.8505 126.25 46.1905 122C49.5405 117.75 49.6805 114.57 49.6805 114.57Z" fill="#0268D3"/>
<path d="M63.7305 134.29C67.1305 140.37 68.7805 148.55 68.8405 151.84C69.8505 142.73 67.0705 134.4 64.5105 131.59L63.7305 134.29Z" fill="#F28F8F"/>
<path d="M91.281 89.9199C85.561 90.8099 84.341 90.9299 80.691 92.1799C77.041 93.4299 74.421 94.6899 71.051 105.68C67.811 116.28 64.791 128.34 64.791 128.34C64.791 128.34 67.991 136.72 83.761 138.34L92.131 115C92.121 114.99 94.741 100.94 91.281 89.9199Z" fill="#EBEBEB"/>
<path d="M35.0705 102.781C35.2805 104.541 34.0305 106.141 32.2805 106.351C30.5205 106.561 28.9205 105.311 28.7105 103.561C28.5005 101.801 29.7505 100.201 31.5005 99.9909C33.2605 99.7709 34.8505 101.021 35.0705 102.781Z" fill="#263238"/>
<path d="M218.111 112.851H214.571C212.671 112.851 211.131 114.391 211.131 116.291V153.711C211.131 163.081 203.531 170.671 194.171 170.671H48.1006C38.7306 170.671 31.1406 163.071 31.1406 153.711V104.991C31.1406 104.581 31.4806 104.241 31.8906 104.241C32.3006 104.241 32.6406 104.581 32.6406 104.991V153.361C32.6406 162.101 39.7206 169.181 48.4606 169.181H193.821C202.561 169.181 209.641 162.101 209.641 153.361V116.291C209.641 113.561 211.851 111.351 214.581 111.351H220.671C219.851 111.921 219.001 112.421 218.111 112.851Z" fill="#37474F"/>
<path d="M28.1004 103.841C25.8404 102.881 25.6004 100.911 27.5604 99.4311C29.5204 97.9611 32.9304 97.5411 35.1904 98.5011C37.4504 99.4611 37.6904 101.431 35.7304 102.911C33.7704 104.381 30.3504 104.801 28.1004 103.841Z" fill="#37474F"/>
<path d="M27.8401 102.701C25.5201 101.711 25.2701 99.6805 27.2901 98.1605C29.3101 96.6405 32.8301 96.2105 35.1501 97.2005C37.4701 98.1905 37.7201 100.221 35.7001 101.741C33.6901 103.261 30.1601 103.691 27.8401 102.701Z" fill="#263238"/>
<path d="M27.5699 101.541C25.1699 100.521 24.9199 98.4207 26.9999 96.8607C29.0799 95.2907 32.7099 94.8507 35.1099 95.8707C37.5099 96.8907 37.7599 98.9807 35.6799 100.551C33.5999 102.111 29.9699 102.551 27.5699 101.541Z" fill="#37474F"/>
<path d="M27.3001 100.331C24.8301 99.2805 24.5701 97.1205 26.7101 95.5105C28.8601 93.9005 32.6001 93.4405 35.0701 94.4905C37.5401 95.5405 37.8001 97.7005 35.6601 99.3105C33.5101 100.931 29.7701 101.381 27.3001 100.331Z" fill="#263238"/>
<path d="M27.0608 99.0611C24.5408 97.9911 24.2708 95.7811 26.4608 94.1411C28.6508 92.4911 32.4708 92.0311 34.9908 93.1011C37.5108 94.1711 37.7808 96.3811 35.5908 98.0211C33.4008 99.6711 29.5808 100.131 27.0608 99.0611Z" fill="#37474F"/>
<path d="M26.8104 61.4808C18.4404 62.5008 12.4804 70.1108 13.5004 78.4808C14.9704 90.5108 25.1404 91.3008 25.7304 96.1508C25.8204 96.9208 26.4304 97.6308 27.5204 98.1008C29.7104 99.0308 33.0204 98.6308 34.9104 97.2008C35.8604 96.4908 36.2804 95.6508 36.1804 94.8808C35.5904 90.0308 45.2704 86.8208 43.8104 74.7908C42.7904 66.4208 35.1804 60.4608 26.8104 61.4808Z" fill="#F9BC15"/>
<path d="M28.3503 97.3412C26.7103 96.6412 26.5303 95.2012 27.9603 94.1312C29.3903 93.0612 31.8803 92.7512 33.5203 93.4512C35.1603 94.1512 35.3403 95.5912 33.9103 96.6612C32.4903 97.7312 30.0003 98.0412 28.3503 97.3412Z" fill="#D7A317"/>
<path d="M32.9203 94.7707C32.6403 94.8007 32.3803 94.6107 32.3403 94.3307C32.3203 94.1707 31.7803 90.2807 32.3503 85.5407C32.4603 84.6207 32.6203 83.7807 32.8103 83.0407C32.3703 82.9407 31.9003 82.7807 31.4203 82.5607C30.5503 82.1607 29.8103 81.6607 29.2003 81.1107C28.7403 81.7807 28.1403 82.4507 27.4003 83.0507C26.9803 83.3907 26.5703 83.6507 26.1603 83.8507C26.5303 84.5207 26.8803 85.3007 27.2103 86.1707C28.9003 90.6407 29.3103 94.5407 29.3303 94.7007C29.3603 94.9807 29.1603 95.2107 28.8703 95.2707C28.5903 95.3007 28.3303 95.0907 28.3003 94.8107C28.3003 94.7707 27.8903 90.8807 26.2503 86.5407C25.9003 85.6207 25.5403 84.8607 25.1903 84.2307C23.9603 84.5607 22.8903 84.3107 22.2203 83.7407C21.5503 83.1707 21.3603 82.3307 21.7403 81.6407C22.0303 81.1207 22.5103 80.8407 23.0703 80.8807C23.9003 80.9407 24.7903 81.6807 25.6303 82.9507C25.9903 82.7807 26.3703 82.5407 26.7503 82.2307C27.5003 81.6307 28.0603 80.9807 28.4703 80.3507C27.6403 79.3607 27.2503 78.3207 27.3703 77.5507C27.4703 76.8907 27.9403 76.4407 28.6303 76.3607C29.3103 76.2807 29.8803 76.6007 30.1403 77.2107C30.4403 77.9307 30.3103 79.0307 29.7403 80.1907C30.2803 80.7107 30.9903 81.2007 31.8603 81.6107C32.3103 81.8207 32.7303 81.9607 33.1203 82.0407C33.6303 80.6007 34.3203 79.6707 35.1103 79.4107C35.6403 79.2407 36.1704 79.3907 36.5803 79.8307C37.1203 80.4007 37.1303 81.2707 36.6203 81.9807C36.1103 82.6907 35.1303 83.2007 33.8603 83.1707C33.6703 83.8607 33.5003 84.6807 33.3903 85.6607C32.8303 90.2707 33.3703 94.1407 33.3803 94.1807C33.4203 94.4607 33.2203 94.7307 32.9403 94.7707C32.9203 94.7707 32.9203 94.7707 32.9203 94.7707ZM22.9103 81.9207C22.8203 81.9307 22.7303 81.9807 22.6403 82.1507C22.4303 82.5207 22.7703 82.8607 22.8803 82.9507C23.2503 83.2707 23.8603 83.4307 24.5903 83.3007C23.9203 82.3607 23.3303 81.9507 22.9803 81.9207C22.9603 81.9107 22.9303 81.9107 22.9103 81.9207ZM34.2003 82.1207C34.9303 82.0707 35.4903 81.7707 35.7803 81.3707C35.8603 81.2507 36.1203 80.8507 35.8203 80.5407C35.6503 80.3607 35.5303 80.3707 35.4303 80.4007C35.1003 80.5107 34.6203 81.0507 34.2003 82.1207ZM28.7503 77.3907C28.4903 77.4207 28.4203 77.5407 28.3903 77.7107C28.3303 78.1007 28.5303 78.7007 28.9903 79.3507C29.2803 78.6107 29.3303 77.9907 29.1803 77.6207C29.1103 77.4607 29.0103 77.3607 28.7503 77.3907Z" fill="white"/>
<path d="M36.5805 56.64C36.0705 56.43 35.8205 55.84 36.0305 55.33L38.0105 50.44C38.2205 49.92 38.8105 49.67 39.3305 49.88C39.8405 50.09 40.0905 50.68 39.8805 51.19L37.9005 56.08C37.6905 56.6 37.1005 56.85 36.5805 56.64Z" fill="#E0E0E0"/>
<path d="M25.0206 55.2105C24.7006 55.0805 24.4506 54.7805 24.4006 54.4105L23.6706 49.1905C23.5906 48.6405 23.9806 48.1305 24.5306 48.0505C25.0806 47.9705 25.5906 48.3605 25.6706 48.9105L26.4006 54.1305C26.4806 54.6805 26.0906 55.1905 25.5406 55.2705C25.3606 55.3005 25.1806 55.2805 25.0206 55.2105Z" fill="#E0E0E0"/>
<path d="M14.3 59.75C14.14 59.69 14 59.58 13.89 59.44L10.65 55.28C10.31 54.84 10.39 54.2 10.83 53.86C11.27 53.52 11.91 53.6 12.25 54.04L15.49 58.2C15.83 58.64 15.75 59.28 15.31 59.62C15.01 59.84 14.62 59.88 14.3 59.75Z" fill="#E0E0E0"/>
<path d="M2.40084 67.0608C1.89085 66.8508 1.64084 66.2608 1.85084 65.7408C2.06084 65.2208 2.65084 64.9708 3.17084 65.1808L8.06085 67.1608C8.58085 67.3708 8.82084 67.9608 8.61084 68.4808C8.39084 69.0008 7.80085 69.2508 7.28085 69.0408L2.40084 67.0608Z" fill="#E0E0E0"/>
<path d="M0.630412 81.3201C0.310412 81.1901 0.0604124 80.8901 0.0104124 80.5201C-0.0695876 79.9701 0.320412 79.4601 0.870412 79.3801L6.09041 78.6501C6.64041 78.5701 7.15041 78.9601 7.23041 79.5101C7.31041 80.0601 6.92041 80.5701 6.37041 80.6501L1.15041 81.3801C0.970412 81.4101 0.790412 81.3901 0.630412 81.3201Z" fill="#E0E0E0"/>
<path d="M50.4107 74.3904C50.0907 74.2604 49.8407 73.9604 49.7907 73.5904C49.7107 73.0404 50.1007 72.5304 50.6507 72.4504L55.8707 71.7204C56.4207 71.6404 56.9307 72.0304 57.0107 72.5804C57.0907 73.1304 56.7007 73.6404 56.1507 73.7204L50.9307 74.4504C50.7507 74.4804 50.5707 74.4504 50.4107 74.3904Z" fill="#E0E0E0"/>
<path d="M45.8706 63.6601C45.7106 63.6001 45.5706 63.4901 45.4606 63.3501C45.1206 62.9101 45.2006 62.2701 45.6406 61.9301L49.8006 58.6901C50.2406 58.3501 50.8806 58.4301 51.2206 58.8701C51.5606 59.3101 51.4806 59.9501 51.0406 60.2901L46.8806 63.5301C46.5806 63.7501 46.1906 63.7901 45.8706 63.6601Z" fill="#E0E0E0"/>
<path d="M80.3702 178.99L75.1002 181.9C74.4602 182.25 73.9202 183.13 73.9002 183.87C73.7702 188.6 73.3302 207.2 74.0902 216.09C74.1502 216.82 74.7302 217.7 75.3702 218.06C78.3802 219.75 86.5102 224.21 90.2402 225.24C90.9502 225.44 92.1002 225.23 92.7702 224.96L96.5302 223.45C97.2102 223.18 97.7502 222.36 97.7502 221.63C97.7902 212.19 99.4702 199.45 101.04 189.16C101.15 188.44 100.7 187.59 100.04 187.27L82.7202 178.91C82.0702 178.61 81.0102 178.63 80.3702 178.99Z" fill="#455A64"/>
<path d="M74.0902 216.09C73.3302 207.2 73.7702 188.6 73.9002 183.88C73.9202 183.15 74.4702 182.82 75.1302 183.14L91.2502 191.15C91.9102 191.48 92.3802 192.33 92.3302 193.06C91.9902 197.25 90.9602 213.01 91.4802 224.14C91.5102 224.87 90.9502 225.44 90.2402 225.25C86.5102 224.22 78.3902 219.76 75.3702 218.07C74.7302 217.7 74.1502 216.81 74.0902 216.09Z" fill="#37474F"/>
<path d="M90.4297 225.27C91.1397 225.41 92.1497 225.2 92.7697 224.96L96.5297 223.45C97.2097 223.19 97.6897 222.36 97.7497 221.63C98.4897 211.94 99.4697 199.45 101.04 189.17C101.1 188.82 101.02 188.47 100.85 188.14L92.1297 192.12C92.2697 192.42 92.3497 192.75 92.3197 193.06C91.9797 197.26 90.9497 213.02 91.4797 224.15C91.4997 224.8 91.0397 225.33 90.4297 225.27Z" fill="#263238"/>
<path d="M76.15 186.91L90.27 193.5L89.59 205.51L75.77 199.57C75.76 199.56 75.9 190.99 76.15 186.91Z" fill="#263238"/>
<path d="M89.6299 204.77L76.4199 199.1C76.4199 199.1 76.5499 191.25 76.7599 187.21L90.2599 193.5L89.6299 204.77Z" fill="#0073EC"/>
<path d="M83.7198 191.51L80.7598 195.8L82.6198 196.44L81.1798 200.22L84.4898 195.76L82.6198 195.06L83.7198 191.51Z" fill="#FAFAFA"/>
<path d="M88.6897 208.24L88.6097 209.43C88.5797 209.8 88.2897 209.98 87.9497 209.84L85.8097 208.96C85.4697 208.82 85.2097 208.41 85.2397 208.05L85.3097 206.83C85.3297 206.46 85.6197 206.28 85.9597 206.42L88.1297 207.32C88.4597 207.47 88.7197 207.88 88.6897 208.24Z" fill="#263238"/>
<path d="M88.71 212.121L88.65 213.311C88.63 213.681 88.34 213.861 88 213.731L85.85 212.891C85.51 212.761 85.25 212.351 85.26 211.991L85.31 210.771C85.33 210.401 85.61 210.221 85.95 210.351L88.13 211.221C88.47 211.341 88.73 211.751 88.71 212.121Z" fill="#263238"/>
<path d="M88.7298 215.991L88.6798 217.181C88.6698 217.551 88.3798 217.741 88.0298 217.611L85.8698 216.801C85.5298 216.671 85.2598 216.271 85.2698 215.901L85.2998 214.681C85.3098 214.311 85.5998 214.121 85.9398 214.251L88.1398 215.081C88.4798 215.221 88.7398 215.621 88.7298 215.991Z" fill="#263238"/>
<path d="M88.7493 219.861L88.7193 221.051C88.7093 221.421 88.4193 221.611 88.0793 221.491L85.8993 220.711C85.5493 220.591 85.2793 220.191 85.2793 219.821L85.2893 218.601C85.2893 218.231 85.5793 218.041 85.9193 218.161L88.1293 218.961C88.4893 219.091 88.7593 219.491 88.7493 219.861Z" fill="#263238"/>
<path d="M83.9 206.06L83.84 207.3C83.82 207.67 83.53 207.85 83.19 207.71L81.06 206.83C80.72 206.69 80.46 206.28 80.47 205.91L80.52 204.64C80.53 204.27 80.82 204.09 81.16 204.23L83.32 205.13C83.66 205.28 83.92 205.69 83.9 206.06Z" fill="#263238"/>
<path d="M83.8802 209.9L83.8202 211.14C83.8002 211.51 83.5102 211.69 83.1802 211.55L81.0502 210.68C80.7102 210.54 80.4502 210.13 80.4602 209.77L80.5102 208.5C80.5202 208.13 80.8102 207.95 81.1502 208.09L83.3102 208.98C83.6402 209.13 83.9002 209.54 83.8802 209.9Z" fill="#263238"/>
<path d="M83.87 213.75L83.82 214.99C83.8 215.36 83.52 215.54 83.18 215.4L81.05 214.54C80.71 214.4 80.44 214 80.46 213.63L80.5 212.36C80.51 211.99 80.8 211.81 81.13 211.95L83.29 212.83C83.62 212.97 83.88 213.38 83.87 213.75Z" fill="#263238"/>
<path d="M83.8502 217.59L83.8002 218.83C83.7902 219.2 83.5002 219.38 83.1602 219.25L81.0202 218.4C80.6802 218.26 80.4102 217.86 80.4202 217.49L80.4502 216.22C80.4602 215.85 80.7402 215.67 81.0802 215.81L83.2502 216.68C83.6002 216.82 83.8602 217.23 83.8502 217.59Z" fill="#263238"/>
<path d="M79.1098 203.87L79.0698 205.16C79.0598 205.53 78.7698 205.71 78.4398 205.57L76.3298 204.69C75.9898 204.55 75.7198 204.14 75.7298 203.77L75.7598 202.45C75.7698 202.08 76.0498 201.9 76.3898 202.05L78.5298 202.96C78.8598 203.1 79.1198 203.51 79.1098 203.87Z" fill="#263238"/>
<path d="M79.1195 207.61L79.0795 208.9C79.0695 209.27 78.7795 209.45 78.4495 209.31L76.3395 208.43C75.9995 208.29 75.7295 207.88 75.7395 207.51L75.7695 206.19C75.7795 205.82 76.0595 205.64 76.3995 205.79L78.5395 206.7C78.8695 206.84 79.1295 207.25 79.1195 207.61Z" fill="#263238"/>
<path d="M79.1293 211.35L79.0893 212.64C79.0793 213.01 78.7893 213.19 78.4593 213.05L76.3493 212.17C76.0093 212.03 75.7393 211.62 75.7493 211.25L75.7793 209.93C75.7893 209.56 76.0693 209.38 76.4093 209.53L78.5493 210.44C78.8793 210.57 79.1493 210.99 79.1293 211.35Z" fill="#263238"/>
<path d="M79.1498 215.09L79.1098 216.38C79.0998 216.75 78.8098 216.93 78.4798 216.79L76.3698 215.91C76.0298 215.77 75.7598 215.36 75.7698 214.99L75.7998 213.67C75.8098 213.3 76.0898 213.12 76.4298 213.27L78.5698 214.18C78.8998 214.31 79.1598 214.73 79.1498 215.09Z" fill="#263238"/>
<path d="M320.63 372.4L311.41 369.26C310.62 360.42 311.76 339 326.13 326.43C340.72 313.67 350.24 321.85 349.97 327.39C349.66 333.48 336.58 339.19 329.95 347.41C322.73 356.36 320.47 362.46 320.63 372.4Z" fill="#0073EC" fill-opacity="0.16"/>
<path d="M314.41 370.78C314.13 370.78 313.91 370.55 313.91 370.28C314.04 346.5 331.71 325.69 340.5 324.34C340.78 324.3 341.03 324.49 341.07 324.76C341.11 325.03 340.92 325.29 340.65 325.33C332.03 326.65 315.03 347.82 314.91 370.29C314.91 370.56 314.69 370.78 314.41 370.78Z" fill="white"/>
<path d="M342.56 351.091C334.59 348.461 317.16 357.211 313.79 370.101L320.63 372.401C320.63 372.401 328.65 365.301 339.92 364.161C351.19 363.011 350.53 353.721 342.56 351.091Z" fill="#0073EC" fill-opacity="0.16"/>
<path d="M316.91 371.831C316.83 371.831 316.75 371.811 316.68 371.771C316.43 371.641 316.34 371.341 316.47 371.101C323.32 357.871 338.19 353.961 344.24 355.581C344.51 355.651 344.67 355.931 344.59 356.191C344.52 356.461 344.25 356.611 343.98 356.541C338.2 354.991 323.96 358.791 317.35 371.561C317.26 371.731 317.09 371.831 316.91 371.831Z" fill="white"/>
<path d="M309.181 224.19V372.07C309.181 372.9 309.731 373.72 310.821 374.35C313.001 375.61 316.551 375.61 318.731 374.35C319.821 373.72 320.371 372.89 320.371 372.07V224.19H309.181Z" fill="#455A64"/>
<path d="M309.181 251.91L320.371 245.45V224.19H309.181V251.91Z" fill="#37474F"/>
<path d="M293.551 249.53L370.731 204.97V66.8398L293.551 111.4V249.53Z" fill="#0073EC"/>
<path d="M370.73 66.84L336 46.79L258.82 91.35L293.55 111.4L370.73 66.84Z" fill="#1185FF"/>
<path d="M258.82 91.3496V229.48L293.55 249.53V111.4L258.82 91.3496Z" fill="#0268D3"/>
<path d="M342.761 102.75L314.141 177.2L332.141 162.64L318.151 215.28L350.141 135.23L332.141 149.27L342.761 102.75Z" fill="#FAFAFA"/>
<path d="M299.34 112.51C300.41 111.89 301.27 112.39 301.27 113.62C301.27 114.85 300.41 116.35 299.34 116.96C298.27 117.58 297.41 117.08 297.41 115.85C297.41 114.62 298.28 113.13 299.34 112.51Z" fill="#37474F"/>
<path d="M299.34 237.28C300.41 236.66 301.27 237.16 301.27 238.39C301.27 239.62 300.41 241.12 299.34 241.73C298.27 242.35 297.41 241.85 297.41 240.62C297.41 239.39 298.28 237.9 299.34 237.28Z" fill="#37474F"/>
<path d="M364.951 74.6296C366.021 74.0096 366.881 74.5096 366.881 75.7396C366.881 76.9696 366.021 78.4696 364.951 79.0796C363.881 79.6996 363.021 79.1996 363.021 77.9696C363.021 76.7396 363.881 75.2496 364.951 74.6296Z" fill="#37474F"/>
<path d="M364.951 199.399C366.021 198.779 366.881 199.279 366.881 200.509C366.881 201.739 366.021 203.239 364.951 203.849C363.881 204.469 363.021 203.969 363.021 202.739C363.021 201.519 363.881 200.019 364.951 199.399Z" fill="#37474F"/>
<path d="M370.731 66.8405V164.87L413.181 140.36V2.23047L336.001 46.7905L370.731 66.8405Z" fill="#0073EC"/>
<path d="M413.181 2.23L336.001 46.79L332.141 44.56L409.321 0L413.181 2.23Z" fill="#1185FF"/>
<path d="M332.141 49.0096V44.5596L336.001 46.7896L332.141 49.0096Z" fill="#BA68C8"/>
<path opacity="0.2" d="M332.141 49.0096V44.5596L336.001 46.7896L332.141 49.0096Z" fill="black"/>
<path opacity="0.2" d="M336.001 46.79L385.701 60.42V156.23L370.731 164.87V66.84L336.001 46.79Z" fill="black"/>
</g>
<defs>
<clipPath id="clip0_61_10502">
<rect width="413.18" height="416.7" fill="white"/>
</clipPath>
</defs>
</svg>
